<?xml version="1.0" standalone="no"?>
<!DOCTYPE svg PUBLIC "-//W3C//DTD SVG 20010904//EN"
 "http://www.w3.org/TR/2001/REC-SVG-20010904/DTD/svg10.dtd">
<svg version="1.0" xmlns="http://www.w3.org/2000/svg"
 width="700.000000pt" height="700.000000pt" viewBox="0 0 700.000000 700.000000"
 preserveAspectRatio="xMidYMid meet">
<metadata>
Created by potrace 1.14, written by Peter Selinger 2001-2017
</metadata>
<g transform="translate(0.000000,700.000000) scale(0.100000,-0.100000)"
fill="#000000" stroke="none">
<path d="M1331 6285 c-270 -59 -499 -258 -586 -510 -45 -131 -44 -62 -42
-2300 1 -1166 5 -2129 9 -2141 3 -11 13 -43 21 -70 81 -269 288 -466 567 -540
l85 -23 2105 0 c2252 0 2147 -2 2291 48 152 52 292 163 387 305 54 81 89 163
113 266 17 71 18 191 19 2157 0 1329 -3 2107 -10 2151 -15 110 -64 235 -127
329 -77 115 -233 239 -362 287 -155 59 -9 56 -2301 55 -1754 -1 -2116 -3
-2169 -14z m3064 -1756 c27 -13 182 -161 477 -457 351 -352 438 -445 449 -477
21 -64 16 -153 -10 -207 -16 -32 -149 -171 -450 -472 -389 -389 -432 -428
-485 -450 -181 -74 -371 68 -353 264 2 31 13 72 22 91 9 19 162 179 338 357
l322 322 -322 323 c-176 177 -329 337 -338 356 -41 82 -26 210 32 280 31 38
100 81 146 91 46 11 125 1 172 -21z m-1553 -25 c108 -65 153 -210 104 -329
-12 -28 -109 -132 -334 -357 l-317 -318 310 -309 c351 -351 361 -364 359 -478
-1 -58 -7 -81 -27 -115 -53 -90 -133 -138 -231 -139 -108 -2 -114 3 -578 469
-252 254 -431 441 -441 462 -25 56 -29 125 -11 189 16 54 28 68 443 484 234
236 443 437 463 448 83 43 182 40 260 -7z"/>
</g>
</svg>
